<?xml version="1.0" encoding="utf-8"?>
<!-- Generator: Adobe Illustrator 23.0.2, SVG Export Plug-In . SVG Version: 6.00 Build 0)  -->
<svg version="1.1" id="Layer_1" xmlns="http://www.w3.org/2000/svg" xmlns:xlink="http://www.w3.org/1999/xlink" x="0px" y="0px"
	 viewBox="0 0 1500 1500" style="enable-background:new 0 0 1500 1500;" xml:space="preserve">
<style type="text/css">
	.st0{fill:#1C1919;stroke:#231F20;stroke-width:7;stroke-miterlimit:10;}
	.st1{fill:#94DD85;}
	.st2{fill:#67DB31;}
	.st3{fill:#124B75;}
	.st4{fill:#0C83EF;}
	.st5{fill:#FFFFFF;}
	.st6{fill:none;stroke:#231F20;stroke-width:6;stroke-miterlimit:10;}
	.st7{stroke:#231F20;stroke-width:6;stroke-miterlimit:10;}
	.st8{fill:#FCFCFC;}
	.st9{fill:none;stroke:#FFFFFF;stroke-width:8;stroke-linecap:round;stroke-miterlimit:10;}
	.st10{fill:#442626;}
	.st11{fill:#6D3D3D;}
	.st12{fill:#209114;}
	.st13{fill:#045E08;}
	.st14{display:none;fill:#67DB31;}
</style>
<rect class="st0" width="1500" height="1500"/>
<path class="st1" d="M537.77,927.3c0,6.4-0.46,12.68-1.33,18.81H570c0.27-3.27,0.42-6.58,0.42-9.93c0-42.61-21.47-73.14-54.34-90.39
	l-12.61-6.27C524.6,861.6,537.77,892.76,537.77,927.3z"/>
<path class="st2" d="M969.92,904.23h-52.21c7.5-52.81,49.14-93.22,99.39-93.22c10.87,0,21.34,1.9,31.15,5.4
	C1006.65,821.64,973.77,858.33,969.92,904.23z"/>
<g>
	<path class="st3" d="M811.77,536.2c49.38,41.28,80.81,103.31,80.81,172.71c0,124.28-100.75,225.04-225.04,225.04
		c-20.78,0-40.88-2.88-59.99-8.15c39.06,32.65,89.34,52.33,144.23,52.33c124.28,0,225.04-100.75,225.04-225.04
		C976.81,649.58,906.92,562.46,811.77,536.2z"/>
	<path class="st4" d="M892.57,708.9c0-69.39-31.43-131.43-80.81-172.71c-19.11-5.27-39.21-8.15-59.99-8.15
		c-124.28,0-225.04,100.75-225.04,225.04c0,69.39,31.43,131.43,80.81,172.71c19.11,5.27,39.21,8.15,59.99,8.15
		C791.82,933.94,892.57,833.19,892.57,708.9z"/>
</g>
<g>
	<circle class="st5" cx="753.11" cy="389.68" r="134.23"/>
	<polygon class="st6" points="712.84,376.88 660.97,363.55 662.03,312.46 699.23,283.12 748.82,298.25 750.04,347.55 	"/>
	<polygon class="st7" points="779.42,423.04 729.52,425.01 712.22,378.16 751.43,347.24 792.96,374.97 	"/>
	<polygon class="st6" points="780.75,505.46 733.41,507.33 702.31,465.4 730.17,425.34 777.51,423.47 808.48,462.2 	"/>
	<polygon class="st6" points="702.31,465.4 650.43,451.69 634.02,407.24 660.97,363.55 711,378.83 727.41,423.27 	"/>
	<polygon class="st6" points="791.76,373.86 752.37,347.55 748.82,298.25 797.94,279.31 837.33,305.62 839.01,358.38 	"/>
	<polygon class="st6" points="808.48,462.2 778.7,422.1 791.55,376.5 839.01,358.38 870.53,398.76 857.68,444.36 	"/>
	<polygon class="st7" points="748.37,297.94 699.23,283.12 711.25,262.11 785.54,259.4 797.94,279.31 	"/>
	<polygon class="st7" points="658.79,366.7 631.84,410.38 619.03,395.99 637.74,321.05 662.03,312.46 	"/>
	<polygon class="st7" points="870.53,398.76 839.8,358.45 837.33,305.62 863.32,313.04 887.08,381.31 	"/>
	<polygon class="st7" points="866.75,461.15 808.95,512 780.75,505.46 809.11,461.89 857.68,444.36 	"/>
	<polygon class="st7" points="696.62,512.19 648.91,474.3 650.43,451.69 704.5,464.87 733.41,507.33 	"/>
</g>
<g>
	<path class="st8" d="M630.67,654.42c-24.45-5.31-36.37-23.75-30.3-43.74c-12.58,10.42-23.07,23.93-29.49,39.25
		c-16.32,38.98-0.1,74.97,36.23,80.37c36.33,5.41,79.01-21.81,95.33-60.8c6.65-15.87,7.9-31.25,4.59-44.27
		C691.81,647.44,658.31,660.42,630.67,654.42z"/>
	<path d="M630.67,654.42c27.64,6,61.14-6.98,76.36-29.18c-4.81-18.95-19.28-32.9-40.81-36.1c-22.05-3.28-46.43,5.46-65.85,21.54
		C594.3,630.67,606.22,649.11,630.67,654.42z"/>
</g>
<g>
	<path class="st8" d="M867.65,656.42c24.45-5.31,36.37-23.75,30.3-43.74c12.58,10.42,23.07,23.93,29.49,39.25
		c16.32,38.98,0.1,74.97-36.23,80.37c-36.33,5.41-79.01-21.81-95.33-60.8c-6.65-15.87-7.9-31.25-4.59-44.27
		C806.51,649.44,840.01,662.42,867.65,656.42z"/>
	<path d="M867.65,656.42c-27.64,6-61.14-6.98-76.36-29.18c4.81-18.95,19.28-32.9,40.81-36.1c22.05-3.28,46.43,5.46,65.85,21.54
		C904.02,632.67,892.1,651.11,867.65,656.42z"/>
</g>
<line class="st9" x1="607.55" y1="842.53" x2="908.02" y2="842.53"/>
<g>
	<path class="st10" d="M1137.37,1033.49H327.33c-11.62,0-21.63-9.73-26.18-23.73c-1.68,5.16-2.62,10.9-2.62,16.95v0
		c0,22.47,12.89,40.68,28.8,40.68h810.04c15.91,0,28.8-18.21,28.8-40.68v0c0-6.05-0.94-11.79-2.62-16.95
		C1159,1023.76,1148.99,1033.49,1137.37,1033.49z"/>
	<path class="st11" d="M1137.37,986.03H327.33c-11.62,0-21.63,9.73-26.18,23.73c4.55,14,14.56,23.73,26.18,23.73h810.04
		c11.62,0,21.63-9.73,26.18-23.73C1159,995.76,1148.99,986.03,1137.37,986.03z"/>
</g>
<g>
	<path class="st12" d="M514.66,880.69c-4.1-0.51-8.27-0.79-12.5-0.79c-56.61,0-103.11,47.47-108.19,108.08h37.32
		C438.48,937.42,471.27,896.18,514.66,880.69z"/>
	<path class="st2" d="M1098.16,986.03h52.21c-7.5-52.81-49.14-93.22-99.39-93.22c-10.87,0-21.34,1.9-31.15,5.4
		C1061.43,903.44,1094.31,940.13,1098.16,986.03z"/>
	<path class="st13" d="M511.98,969.28c12.78,0,25.2,1.67,37.1,4.8c-30.5-26.36-68.99-42.09-110.83-42.09
		c-47.92,0-91.45,20.63-123.61,54.24h128.99C464.32,975.37,487.5,969.28,511.98,969.28z"/>
	<path class="st1" d="M382.73,966.48c0,6.4-0.46,12.68-1.33,18.81h33.56c0.27-3.27,0.42-6.58,0.42-9.93
		c0-42.61-21.47-73.14-54.34-90.39l-12.61-6.27C369.57,900.78,382.73,931.94,382.73,966.48z"/>
</g>
<path class="st13" d="M1004.47,969.28c12.78,0,25.2,1.67,37.1,4.8c-30.5-26.36-68.99-42.09-110.83-42.09
	c-47.92,0-91.45,20.63-123.61,54.24h128.99C956.81,975.37,979.99,969.28,1004.47,969.28z"/>
<path class="st13" d="M679.32,969.28c-12.78,0-25.2,1.67-37.1,4.8c30.5-26.36,68.99-42.09,110.83-42.09
	c47.92,0,91.45,20.63,123.61,54.24H747.67C726.97,975.37,703.79,969.28,679.32,969.28z"/>
<path class="st2" d="M332.13,986.03h52.21c-7.5-52.81-49.14-93.22-99.39-93.22c-10.87,0-21.34,1.9-31.15,5.4
	C295.4,903.44,328.28,940.13,332.13,986.03z"/>
<path class="st2" d="M797.99,986.03h52.21c-7.5-52.81-49.14-93.22-99.39-93.22c-10.87,0-21.34,1.9-31.15,5.4
	C761.27,903.44,794.14,940.13,797.99,986.03z"/>
<path class="st14" d="M635.39,986.03h52.21c-7.5-52.81-49.14-93.22-99.39-93.22c-10.87,0-21.34,1.9-31.15,5.4
	C598.66,903.44,631.54,940.13,635.39,986.03z"/>
<path class="st2" d="M917.84,986.03h-52.21c7.5-52.81,49.14-93.22,99.39-93.22c10.87,0,21.34,1.9,31.15,5.4
	C954.57,903.44,921.69,940.13,917.84,986.03z"/>
<path class="st1" d="M819.22,966.48c0,6.4-0.46,12.68-1.33,18.81h33.56c0.27-3.27,0.42-6.58,0.42-9.93
	c0-42.61-21.47-73.14-54.34-90.39l-12.61-6.27C806.06,900.78,819.22,931.94,819.22,966.48z"/>
<path class="st12" d="M677.66,878.74c-4.1-0.51-8.27-0.79-12.5-0.79c-56.61,0-103.11,47.47-108.19,108.08h37.32
	C601.48,935.48,634.27,894.23,677.66,878.74z"/>
<path class="st1" d="M1018.73,966.48c0,6.4-0.46,12.68-1.33,18.81h33.56c0.27-3.27,0.42-6.58,0.42-9.93
	c0-42.61-21.47-73.14-54.34-90.39l-12.61-6.27C1005.56,900.78,1018.73,931.94,1018.73,966.48z"/>
<path class="st1" d="M488.61,966.48c0,6.4-0.46,12.68-1.33,18.81h33.56c0.27-3.27,0.42-6.58,0.42-9.93
	c0-42.61-21.47-73.14-54.34-90.39l-12.61-6.27C475.45,900.78,488.61,931.94,488.61,966.48z"/>
<path class="st1" d="M538.25,966.48c0,6.4,0.46,12.68,1.33,18.81h-33.56c-0.27-3.27-0.42-6.58-0.42-9.93
	c0-42.61,21.47-73.14,54.34-90.39l12.61-6.27C551.41,900.78,538.25,931.94,538.25,966.48z"/>
<path class="st2" d="M1072.03,986.03h-52.21c7.5-52.81,49.14-93.22,99.39-93.22c10.87,0,21.34,1.9,31.15,5.4
	C1108.76,903.44,1075.88,940.13,1072.03,986.03z"/>
<path class="st10" d="M321.58,1050.94c-2.69,8.82,11.06,14.5,18.64,44.07c5.73,22.33,0.65,29.88,5.08,52.54
	c2.27,11.61,7.64,39.11,22.03,50.85c31.33,25.55,91.67-34.87,176.27-44.07c73.99-8.05,152.15,37.03,155.93,38.98
	c34.79,17.95,50.98,34.26,81.36,32.2c27.83-1.88,35.27-17.01,83.05-40.68c43.38-21.49,65.14-32.27,93.22-32.2
	c55.16,0.13,68.05,41.96,123.73,38.98c10.03-0.54,43.35-3.7,67.8-28.81c33-33.89,37.34-94.92,14.86-112.42
	c-9.2-7.16-18.09-3.3-65.71,0.56c-22.55,1.83-45.22,1.82-67.8,3.39c-62.95,4.38-152.57,1.8-237.29,0
	c-223.33-4.75-183.04,0.79-245.76-3.39C434.99,1043.49,328.78,1027.31,321.58,1050.94z"/>
<path class="st11" d="M322.18,1014.98c-2.69,8.82,11.06,14.5,18.64,44.07c5.73,22.33,0.65,29.88,5.08,52.54
	c2.27,11.61,7.64,39.11,22.03,50.85c31.33,25.55,91.67-34.87,176.27-44.07c73.99-8.05,152.15,37.03,155.93,38.98
	c34.79,17.95,50.98,34.26,81.36,32.2c27.83-1.88,35.27-17.01,83.05-40.68c43.38-21.49,65.14-32.27,93.22-32.2
	c55.16,0.13,68.05,41.96,123.73,38.98c10.03-0.54,43.35-3.7,67.8-28.81c33-33.89,37.34-94.92,14.86-112.42
	c-9.2-7.16-18.09-3.3-65.71,0.56c-22.55,1.83-45.22,1.82-67.8,3.39c-62.95,4.38-152.57,1.8-237.29,0
	c-223.33-4.75-183.04,0.79-245.76-3.39C435.6,1007.53,329.39,991.35,322.18,1014.98z"/>
<path class="st2" d="M778.23,1045.28h-52.21c7.5-52.81,49.14-93.22,99.39-93.22c10.87,0,21.34,1.9,31.15,5.4
	C814.96,962.68,782.08,999.37,778.23,1045.28z"/>
<path class="st13" d="M659.67,1055.45c12.78,0,25.2,1.67,37.1,4.8c-30.5-26.36-68.99-42.09-110.83-42.09
	c-47.92,0-91.45,20.63-123.61,54.24h128.99C612.01,1061.53,635.19,1055.45,659.67,1055.45z"/>
<path class="st13" d="M1131.5,1055.45c12.78,0,25.2,1.67,37.1,4.8c-30.5-26.36-68.99-42.09-110.83-42.09
	c-47.92,0-91.45,20.63-123.61,54.24h128.99C1083.84,1061.53,1107.02,1055.45,1131.5,1055.45z"/>
<path class="st13" d="M819.4,1048.75c-12.78,0-25.2,1.67-37.1,4.8c30.5-26.36,68.99-42.09,110.83-42.09
	c47.92,0,91.45,20.63,123.61,54.24H887.75C867.05,1054.83,843.87,1048.75,819.4,1048.75z"/>
<path class="st1" d="M455.14,1065.89c0,6.4-0.46,12.68-1.33,18.81h33.56c0.27-3.27,0.42-6.58,0.42-9.93
	c0-42.61-21.47-73.14-54.34-90.39l-12.61-6.27C441.97,1000.2,455.14,1031.36,455.14,1065.89z"/>
<path class="st1" d="M660.07,1033.15c0,6.4-0.46,12.68-1.33,18.81h33.56c0.27-3.27,0.42-6.58,0.42-9.93
	c0-42.61-21.47-73.14-54.34-90.39l-12.61-6.27C646.9,967.45,660.07,998.62,660.07,1033.15z"/>
<path class="st2" d="M900.4,1075.47h52.21c-7.5-52.81-49.14-93.22-99.39-93.22c-10.87,0-21.34,1.9-31.15,5.4
	C863.67,992.88,896.55,1029.57,900.4,1075.47z"/>
<path class="st2" d="M496.87,1017.29h52.21c-7.5-52.81-49.14-93.22-99.39-93.22c-10.87,0-21.34,1.9-31.15,5.4
	C460.15,934.7,493.02,971.38,496.87,1017.29z"/>
<path class="st2" d="M379.47,1024.73h52.21c-7.5-52.81-49.14-93.22-99.39-93.22c-10.87,0-21.34,1.9-31.15,5.4
	C342.75,942.13,375.63,978.82,379.47,1024.73z"/>
<path class="st2" d="M379.47,1098.57h52.21c-7.5-52.81-49.14-93.22-99.39-93.22c-10.87,0-21.34,1.9-31.15,5.4
	C342.75,1015.97,375.63,1052.66,379.47,1098.57z"/>
<path class="st2" d="M1028.51,1017.29h-52.21c7.5-52.81,49.14-93.22,99.39-93.22c10.87,0,21.34,1.9,31.15,5.4
	C1065.24,934.7,1032.36,971.38,1028.51,1017.29z"/>
<path class="st1" d="M596.47,993.6c0,6.4-0.46,12.68-1.33,18.81h33.56c0.27-3.27,0.42-6.58,0.42-9.93
	c0-42.61-21.47-73.14-54.34-90.39l-12.61-6.27C583.3,927.9,596.47,959.06,596.47,993.6z"/>
<path class="st1" d="M513.84,1086.44c0,6.4,0.46,12.68,1.33,18.81h-33.56c-0.27-3.27-0.42-6.58-0.42-9.93
	c0-42.61,21.47-73.14,54.34-90.39l12.61-6.27C527.01,1020.75,513.84,1051.91,513.84,1086.44z"/>
<path class="st1" d="M996.99,1086.44c0,6.4-0.46,12.68-1.33,18.81h33.56c0.27-3.27,0.42-6.58,0.42-9.93
	c0-42.61-21.47-73.14-54.34-90.39l-12.61-6.27C983.83,1020.75,996.99,1051.91,996.99,1086.44z"/>
<path class="st1" d="M1062.3,1079.76c0,6.4,0.46,12.68,1.33,18.81h-33.56c-0.27-3.27-0.42-6.58-0.42-9.93
	c0-42.61,21.47-73.14,54.34-90.39l12.61-6.27C1075.47,1014.06,1062.3,1045.23,1062.3,1079.76z"/>
<path class="st13" d="M590.18,1094.87c-12.78,0-25.2,1.67-37.1,4.8c30.5-26.36,68.99-42.09,110.83-42.09
	c47.92,0,91.45,20.63,123.61,54.24H658.53C637.83,1100.96,614.65,1094.87,590.18,1094.87z"/>
<path class="st2" d="M735.4,1104.19H683.2c7.5-52.81,49.14-93.22,99.39-93.22c10.87,0,21.34,1.9,31.15,5.4
	C772.13,1021.6,739.25,1058.28,735.4,1104.19z"/>
<path class="st2" d="M886.46,1129.54h-52.21c7.5-52.81,49.14-93.22,99.39-93.22c10.87,0,21.34,1.9,31.15,5.4
	C923.18,1046.95,890.31,1083.64,886.46,1129.54z"/>
<path class="st1" d="M642.7,1101.87c0,6.4-0.46,12.68-1.33,18.81h33.56c0.27-3.27,0.42-6.58,0.42-9.93
	c0-42.61-21.47-73.14-54.34-90.39l-12.61-6.27C629.54,1036.18,642.7,1067.34,642.7,1101.87z"/>
<path class="st1" d="M822.47,1111.93c0,6.4-0.46,12.68-1.33,18.81h33.56c0.27-3.27,0.42-6.58,0.42-9.93
	c0-42.61-21.47-73.14-54.34-90.39l-12.61-6.27C809.3,1046.23,822.47,1077.4,822.47,1111.93z"/>
<path class="st2" d="M734.32,996.66h-52.21c7.5-52.81,49.14-93.22,99.39-93.22c10.87,0,21.34,1.9,31.15,5.4
	C771.04,914.07,738.17,950.76,734.32,996.66z"/>
<path class="st13" d="M1234.93,1085.64c12.78,0,25.2,1.67,37.1,4.8c-30.5-26.36-68.99-42.09-110.83-42.09
	c-47.92,0-91.45,20.63-123.61,54.24h128.99C1187.27,1091.73,1210.45,1085.64,1234.93,1085.64z"/>
<path class="st2" d="M418.62,1127.2h-52.21c7.5-52.81,49.14-93.22,99.39-93.22c10.87,0,21.34,1.9,31.15,5.4
	C455.35,1044.6,422.47,1081.29,418.62,1127.2z"/>
<path class="st13" d="M290.9,1094.87c-12.78,0-25.2,1.67-37.1,4.8c30.5-26.36,68.99-42.09,110.83-42.09
	c47.92,0,91.45,20.63,123.61,54.24H359.25C338.56,1100.96,315.38,1094.87,290.9,1094.87z"/>
</svg>
